<svg xmlns="http://www.w3.org/2000/svg" viewBox="0 0 129 125" class="rewards-svg-renderer" preserveAspectRatio="xMidYMid meet" aria-hidden="true" focusable="false"><defs><clipPath id="animationMask_gqH0fmvMv8"><rect width="129" height="125" x="0" y="0"></rect></clipPath><clipPath id="cp_CowJd8IL"><path d="M0,0 L600,0 L600,600 L0,600z"></path></clipPath><mask id="ly_jMC8Lxbsk5" mask-type="alpha"><g transform="matrix(1,0,0,1,172,172)" opacity="1" style="user-select: none;"><g opacity="1" transform="matrix(1,0,0,1,128,128)"><path fill="url(#gr_HJxQSeujlt)" fill-opacity="1" d="M0 0 M-69.297,44.631 C-69.297,118.504 -1.206999999999999,126.001 13.464,126.001 C21.37,126.001 33.304,123.698 40.494,121.443 C40.933,121.297 41.369,121.149 41.806,120.999 C69.564,111.42599999999999 92.993,92.59200000000001 108.393,68.18 C110.603,64.67800000000001 106.71900000000001,60.611 103.051,62.534 C99.686,64.298 96.17,65.876 92.518,67.248 C81.536,71.373 69.41,73.712 56.617,73.712 C9.296999999999997,73.712 -31.926,41.159000000000006 -31.926,-0.611 C-31.926,-12.357000000000001 -25.13,-22.537 -15.501,-27.9 C-58.294999999999995,-26.104999999999997 -69.297,18.501 -69.297,44.631z"></path></g><g opacity="0.63" transform="matrix(1,0,0,1,147.871,177.051)"><g opacity="1" transform="matrix(1,0,0,1,0,0)"><path fill="url(#gr_EzhdYgI7Yx)" mask="url(#mk_CbNCQ8yMvE)" fill-opacity="1" d="M0 0 M83.18,13.483 C79.81500000000001,15.247 76.299,16.825 72.647,18.197 C61.665000000000006,22.322 49.538000000000004,24.661 36.746,24.661 C-10.573999999999998,24.661 -51.797,-7.891999999999996 -51.797,-49.662 C-51.797,-61.407 -45.001000000000005,-71.58800000000001 -35.371,-76.95 C-78.166,-75.156 -89.168,-30.549999999999997 -89.168,-4.42 C-89.168,69.453 -21.079,76.95 -6.407,76.95 C1.4989999999999997,76.95 13.434000000000001,74.647 20.623,72.391 C21.062,72.24600000000001 21.497999999999998,72.098 21.935,71.948 C49.693,62.37499999999999 73.122,43.541 88.523,19.129 C90.732,15.627000000000002 86.84800000000001,11.559000000000001 83.18,13.483z"></path></g></g><g opacity="1" transform="matrix(1,0,0,1,92.276,152.042)"><g opacity="1" transform="matrix(1,0,0,1,0,0)"><path fill="url(#gr_2LuKv6c3Vd)" fill-opacity="1" d="M0 0 M-92.277,-25.743 C-92.277,-2.561 -86.897,15.945000000000002 -80.161,30.289 C-65.161,62.239000000000004 -37.344,86.967 -3.316,97.861 C9.007000000000001,101.808 22.135000000000005,103.958 35.77,103.958 C49.910000000000004,103.958 63.5,101.631 76.218,97.401 C69.027,99.65599999999999 61.405,100.891 53.499,100.891 C38.828,100.891 25.152,96.636 13.434,89.372 C4.539999999999999,83.858 -3.181,76.588 -9.301,67.996 C-18.771,54.699999999999996 -24.432,38.346000000000004 -24.432,20.59 C-24.432,-5.539999999999999 -12.264,-28.686 6.492,-43.35 C10.751000000000001,-46.68 16.206,-50.038000000000004 20.223,-51.941 C23.343999999999998,-53.418 28.681000000000004,-56.079 35.77,-55.978 C47.521,-55.812000000000005 56.399,-49.821000000000005 61.455,-43.017 C65.337,-37.788000000000004 67.733,-31.347 67.813,-24.355 C67.815,-24.566 92.276,-103.959 -12.238,-103.959 C-56.13,-103.959 -92.277,-62.289 -92.277,-25.743z"></path></g></g><g opacity="1" transform="matrix(1,0,0,1,84.247,152.042)"><g opacity="1" transform="matrix(1,0,0,1,0,0)"><path fill="url(#gr_Fe4je3GCk0)" mask="url(#mk_wEg0LVVAGW)" fill-opacity="1" d="M0 0 M21.464,89.372 C12.569999999999999,83.858 4.849,76.588 -1.271,67.996 C-10.741,54.699999999999996 -16.403,38.347 -16.403,20.59 C-16.403,-5.539999999999999 -4.234999999999999,-28.686 14.521,-43.35 C18.78,-46.68 24.234,-50.04 28.253,-51.941 C31.373,-53.419000000000004 36.71,-56.079 43.798,-55.979 C55.550000000000004,-55.812 64.429,-49.821 69.483,-43.016 C73.366,-37.788 75.762,-31.347 75.842,-24.355 C75.844,-24.565 100.306,-103.959 -4.208,-103.959 C-48.101,-103.959 -84.247,-62.289 -84.247,-25.743 C-84.247,-2.5619999999999976 -78.86800000000001,15.945000000000002 -72.132,30.289 C-57.132000000000005,62.238 -29.314,86.967 4.713,97.861 C17.037,101.808 30.164,103.958 43.798,103.958 C57.939,103.958 71.529,101.632 84.247,97.4 C77.057,99.656 69.435,100.891 61.527,100.891 C46.857,100.891 33.182,96.636 21.464,89.372z"></path></g></g><g opacity="1" transform="matrix(1,0,0,1,128.003,85.891)"><g opacity="1" transform="matrix(1,0,0,1,0,0)"><path fill="url(#gr_5PGEyppd69)" fill-opacity="1" d="M0 0 M-0.025,-85.891 C-70.13900000000001,-85.891 -127.056,-29.545 -127.997,40.309 C-127.521,3.766999999999996 -91.203,-25.743 -48.032,-25.743 C-44.531,-25.743 -24.57,-25.401 -6.026,-15.669 C10.308,-7.096 18.872,3.2620000000000005 24.824,13.538 C31.004,24.207 32.104,37.685 32.104,43.058 C32.104,48.43 29.395,56.385 24.311,62.967 C23.501,64.015 21.007,65.464 21.007,68.63 C21.007,71.235 22.708000000000002,73.74799999999999 25.73,75.856 C40.111000000000004,85.892 67.216,84.54 67.288,84.54 C78.478,84.501 88.544,81.424 97.56,76.152 C101.663,73.753 105.46000000000001,70.905 108.882,67.652 C120.63000000000001,56.489000000000004 127.792,40.757999999999996 127.991,23.279 C127.994,23.024 127.996,22.767 127.997,22.514 C127.997,22.514 127.997,22.018 127.997,22.018 C127.938,0.30400000000000205 119.96799999999999,-14.163 116.654,-20.637 C95.46199999999999,-62.055 49.715,-85.891 -0.025,-85.891z"></path></g></g><g opacity="1" transform="matrix(1,0,0,1,128.003,85.891)"><g opacity="1" transform="matrix(1,0,0,1,0,0)"><path fill="url(#gr_2zFYR28ser)" mask="url(#mk_C0DSPQ0Lj9)" fill-opacity="1" d="M0 0 M-0.025,-85.891 C-70.13900000000001,-85.891 -127.056,-29.545 -127.997,40.309 C-127.521,3.766999999999996 -91.203,-25.743 -48.032,-25.743 C-44.531,-25.743 -24.57,-25.401 -6.026,-15.669 C10.308,-7.096 18.872,3.2620000000000005 24.824,13.538 C31.004,24.207 32.104,37.685 32.104,43.058 C32.104,48.43 29.395,56.385 24.311,62.967 C23.501,64.015 21.007,65.464 21.007,68.63 C21.007,71.235 22.708000000000002,73.74799999999999 25.73,75.856 C40.111000000000004,85.892 67.216,84.54 67.288,84.54 C78.478,84.501 88.544,81.424 97.56,76.152 C101.663,73.753 105.46000000000001,70.905 108.882,67.652 C120.63000000000001,56.489000000000004 127.792,40.757999999999996 127.991,23.279 C127.994,23.024 127.996,22.767 127.997,22.514 C127.997,22.514 127.997,22.018 127.997,22.018 C127.938,0.30400000000000205 119.96799999999999,-14.163 116.654,-20.637 C95.46199999999999,-62.055 49.715,-85.891 -0.025,-85.891z"></path></g></g></g></mask><radialGradient id="gr_HJxQSeujlt" spreadMethod="pad" gradientUnits="userSpaceOnUse" cx="-69.859" cy="48.422" r="178.26186017205137" fx="-69.859" fy="48.422"><stop offset="0%" stop-color="rgb(12,89,164)"></stop><stop offset="50%" stop-color="rgb(15,82,151)"></stop><stop offset="100%" stop-color="rgb(17,74,139)"></stop></radialGradient><radialGradient id="gr_EzhdYgI7Yx" spreadMethod="pad" gradientUnits="userSpaceOnUse" cx="9.947" cy="-0.762" r="101.4382153086301" fx="9.947" fy="-0.762"><stop offset="76%" stop-color="rgb(0,0,0)"></stop><stop offset="88%" stop-color="rgb(0,0,0)"></stop><stop offset="100%" stop-color="rgb(0,0,0)"></stop></radialGradient><radialGradient id="op_xVlT0lS5GL" spreadMethod="pad" gradientUnits="userSpaceOnUse" cx="9.947" cy="-0.762" r="101.4382153086301" fx="9.947" fy="-0.762"><stop stop-color="rgb(255,255,255)" offset="76%" stop-opacity="0"></stop><stop stop-color="rgb(255,255,255)" offset="88%" stop-opacity="0.265"></stop><stop stop-color="rgb(255,255,255)" offset="100%" stop-opacity="0.53"></stop><stop stop-color="rgb(255,255,255)" offset="100%" stop-opacity="0.71"></stop><stop stop-color="rgb(255,255,255)" offset="100%" stop-opacity="0.89"></stop></radialGradient><mask id="mk_CbNCQ8yMvE"><path fill="url(#op_xVlT0lS5GL)" d="M0 0 M83.18,13.483 C79.81500000000001,15.247 76.299,16.825 72.647,18.197 C61.665000000000006,22.322 49.538000000000004,24.661 36.746,24.661 C-10.573999999999998,24.661 -51.797,-7.891999999999996 -51.797,-49.662 C-51.797,-61.407 -45.001000000000005,-71.58800000000001 -35.371,-76.95 C-78.166,-75.156 -89.168,-30.549999999999997 -89.168,-4.42 C-89.168,69.453 -21.079,76.95 -6.407,76.95 C1.4989999999999997,76.95 13.434000000000001,74.647 20.623,72.391 C21.062,72.24600000000001 21.497999999999998,72.098 21.935,71.948 C49.693,62.37499999999999 73.122,43.541 88.523,19.129 C90.732,15.627000000000002 86.84800000000001,11.559000000000001 83.18,13.483z"></path></mask><linearGradient id="gr_2LuKv6c3Vd" spreadMethod="pad" gradientUnits="userSpaceOnUse" x1="59.475" y1="-54.537" x2="-41.922" y2="76.691"><stop offset="0%" stop-color="rgb(27,157,226)"></stop><stop offset="8%" stop-color="rgb(24,153,224)"></stop><stop offset="16%" stop-color="rgb(21,149,223)"></stop><stop offset="41%" stop-color="rgb(14,138,219)"></stop><stop offset="66%" stop-color="rgb(6,128,215)"></stop><stop offset="83%" stop-color="rgb(3,124,213)"></stop><stop offset="100%" stop-color="rgb(0,120,212)"></stop></linearGradient><radialGradient id="gr_Fe4je3GCk0" spreadMethod="pad" gradientUnits="userSpaceOnUse" cx="-10.588" cy="45.973" r="156.78805732580526" fx="-10.588" fy="45.973"><stop offset="76%" stop-color="rgb(0,0,0)"></stop><stop offset="88%" stop-color="rgb(0,0,0)"></stop><stop offset="100%" stop-color="rgb(0,0,0)"></stop></radialGradient><radialGradient id="op_s8vgF5il47" spreadMethod="pad" gradientUnits="userSpaceOnUse" cx="-10.588" cy="45.973" r="156.78805732580526" fx="-10.588" fy="45.973"><stop stop-color="rgb(255,255,255)" offset="76%" stop-opacity="0"></stop><stop stop-color="rgb(255,255,255)" offset="85%" stop-opacity="0.25"></stop><stop stop-color="rgb(255,255,255)" offset="95%" stop-opacity="0.5"></stop><stop stop-color="rgb(255,255,255)" offset="97%" stop-opacity="0.75"></stop><stop stop-color="rgb(255,255,255)" offset="100%" stop-opacity="1"></stop></radialGradient><mask id="mk_wEg0LVVAGW"><path fill="url(#op_s8vgF5il47)" d="M0 0 M21.464,89.372 C12.569999999999999,83.858 4.849,76.588 -1.271,67.996 C-10.741,54.699999999999996 -16.403,38.347 -16.403,20.59 C-16.403,-5.539999999999999 -4.234999999999999,-28.686 14.521,-43.35 C18.78,-46.68 24.234,-50.04 28.253,-51.941 C31.373,-53.419000000000004 36.71,-56.079 43.798,-55.979 C55.550000000000004,-55.812 64.429,-49.821 69.483,-43.016 C73.366,-37.788 75.762,-31.347 75.842,-24.355 C75.844,-24.565 100.306,-103.959 -4.208,-103.959 C-48.101,-103.959 -84.247,-62.289 -84.247,-25.743 C-84.247,-2.5619999999999976 -78.86800000000001,15.945000000000002 -72.132,30.289 C-57.132000000000005,62.238 -29.314,86.967 4.713,97.861 C17.037,101.808 30.164,103.958 43.798,103.958 C57.939,103.958 71.529,101.632 84.247,97.4 C77.057,99.656 69.435,100.891 61.527,100.891 C46.857,100.891 33.182,96.636 21.464,89.372z"></path></mask><radialGradient id="gr_5PGEyppd69" spreadMethod="pad" gradientUnits="userSpaceOnUse" cx="-46.498" cy="-109.898" r="279.9283481982487" fx="-41.565202875945516" fy="31.570193388794877"><stop offset="0%" stop-color="rgb(53,193,241)"></stop><stop offset="6%" stop-color="rgb(53,193,239)"></stop><stop offset="11%" stop-color="rgb(52,193,237)"></stop><stop offset="16%" stop-color="rgb(49,194,230)"></stop><stop offset="21%" stop-color="rgb(47,194,223)"></stop><stop offset="26%" stop-color="rgb(45,195,216)"></stop><stop offset="32%" stop-color="rgb(43,195,210)"></stop><stop offset="49%" stop-color="rgb(48,197,146)"></stop><stop offset="67%" stop-color="rgb(54,199,82)"></stop></radialGradient><radialGradient id="gr_2zFYR28ser" spreadMethod="pad" gradientUnits="userSpaceOnUse" cx="113.062" cy="-6.152" r="97.3162545929507" fx="127.4155886" fy="46.51671739999999"><stop offset="0%" stop-color="rgb(102,235,110)"></stop><stop offset="50%" stop-color="rgb(102,235,110)"></stop><stop offset="100%" stop-color="rgb(102,235,110)"></stop></radialGradient><radialGradient id="op_YGSBhzyTGO" spreadMethod="pad" gradientUnits="userSpaceOnUse" cx="113.062" cy="-6.152" r="97.3162545929507" fx="127.4155886" fy="46.51671739999999"><stop stop-color="rgb(255,255,255)" offset="0%" stop-opacity="1"></stop><stop stop-color="rgb(255,255,255)" offset="50%" stop-opacity="0.5"></stop><stop stop-color="rgb(255,255,255)" offset="100%" stop-opacity="0"></stop></radialGradient><mask id="mk_C0DSPQ0Lj9"><path fill="url(#op_YGSBhzyTGO)" d="M0 0 M-0.025,-85.891 C-70.13900000000001,-85.891 -127.056,-29.545 -127.997,40.309 C-127.521,3.766999999999996 -91.203,-25.743 -48.032,-25.743 C-44.531,-25.743 -24.57,-25.401 -6.026,-15.669 C10.308,-7.096 18.872,3.2620000000000005 24.824,13.538 C31.004,24.207 32.104,37.685 32.104,43.058 C32.104,48.43 29.395,56.385 24.311,62.967 C23.501,64.015 21.007,65.464 21.007,68.63 C21.007,71.235 22.708000000000002,73.74799999999999 25.73,75.856 C40.111000000000004,85.892 67.216,84.54 67.288,84.54 C78.478,84.501 88.544,81.424 97.56,76.152 C101.663,73.753 105.46000000000001,70.905 108.882,67.652 C120.63000000000001,56.489000000000004 127.792,40.757999999999996 127.991,23.279 C127.994,23.024 127.996,22.767 127.997,22.514 C127.997,22.514 127.997,22.018 127.997,22.018 C127.938,0.30400000000000205 119.96799999999999,-14.163 116.654,-20.637 C95.46199999999999,-62.055 49.715,-85.891 -0.025,-85.891z"></path></mask><radialGradient id="gr_yCAsyAwV6J" spreadMethod="pad" gradientUnits="userSpaceOnUse" cx="-69.859" cy="48.422" r="178.26186017205137" fx="-69.859" fy="48.422"><stop offset="0%" stop-color="rgb(12,89,164)"></stop><stop offset="50%" stop-color="rgb(15,82,151)"></stop><stop offset="100%" stop-color="rgb(17,74,139)"></stop></radialGradient><radialGradient id="gr_7bRCNf4vys" spreadMethod="pad" gradientUnits="userSpaceOnUse" cx="9.947" cy="-0.762" r="101.4382153086301" fx="9.947" fy="-0.762"><stop offset="76%" stop-color="rgb(0,0,0)"></stop><stop offset="88%" stop-color="rgb(0,0,0)"></stop><stop offset="100%" stop-color="rgb(0,0,0)"></stop></radialGradient><radialGradient id="op_LlO4lPwmJj" spreadMethod="pad" gradientUnits="userSpaceOnUse" cx="9.947" cy="-0.762" r="101.4382153086301" fx="9.947" fy="-0.762"><stop stop-color="rgb(255,255,255)" offset="76%" stop-opacity="0"></stop><stop stop-color="rgb(255,255,255)" offset="88%" stop-opacity="0.265"></stop><stop stop-color="rgb(255,255,255)" offset="100%" stop-opacity="0.53"></stop><stop stop-color="rgb(255,255,255)" offset="100%" stop-opacity="0.71"></stop><stop stop-color="rgb(255,255,255)" offset="100%" stop-opacity="0.89"></stop></radialGradient><mask id="mk_BcCLHZGAg4"><path fill="url(#op_LlO4lPwmJj)" d="M0 0 M83.18,13.483 C79.81500000000001,15.247 76.299,16.825 72.647,18.197 C61.665000000000006,22.322 49.538000000000004,24.661 36.746,24.661 C-10.573999999999998,24.661 -51.797,-7.891999999999996 -51.797,-49.662 C-51.797,-61.407 -45.001000000000005,-71.58800000000001 -35.371,-76.95 C-78.166,-75.156 -89.168,-30.549999999999997 -89.168,-4.42 C-89.168,69.453 -21.079,76.95 -6.407,76.95 C1.4989999999999997,76.95 13.434000000000001,74.647 20.623,72.391 C21.062,72.24600000000001 21.497999999999998,72.098 21.935,71.948 C49.693,62.37499999999999 73.122,43.541 88.523,19.129 C90.732,15.627000000000002 86.84800000000001,11.559000000000001 83.18,13.483z"></path></mask><linearGradient id="gr_ITolcXLHD8" spreadMethod="pad" gradientUnits="userSpaceOnUse" x1="59.475" y1="-54.537" x2="-41.922" y2="76.691"><stop offset="0%" stop-color="rgb(27,157,226)"></stop><stop offset="8%" stop-color="rgb(24,153,224)"></stop><stop offset="16%" stop-color="rgb(21,149,223)"></stop><stop offset="41%" stop-color="rgb(14,138,219)"></stop><stop offset="66%" stop-color="rgb(6,128,215)"></stop><stop offset="83%" stop-color="rgb(3,124,213)"></stop><stop offset="100%" stop-color="rgb(0,120,212)"></stop></linearGradient><radialGradient id="gr_k8LZxxsbgh" spreadMethod="pad" gradientUnits="userSpaceOnUse" cx="-10.588" cy="45.973" r="156.78805732580526" fx="-10.588" fy="45.973"><stop offset="76%" stop-color="rgb(0,0,0)"></stop><stop offset="88%" stop-color="rgb(0,0,0)"></stop><stop offset="100%" stop-color="rgb(0,0,0)"></stop></radialGradient><radialGradient id="op_Nt2SYBCzWX" spreadMethod="pad" gradientUnits="userSpaceOnUse" cx="-10.588" cy="45.973" r="156.78805732580526" fx="-10.588" fy="45.973"><stop stop-color="rgb(255,255,255)" offset="76%" stop-opacity="0"></stop><stop stop-color="rgb(255,255,255)" offset="85%" stop-opacity="0.25"></stop><stop stop-color="rgb(255,255,255)" offset="95%" stop-opacity="0.5"></stop><stop stop-color="rgb(255,255,255)" offset="97%" stop-opacity="0.75"></stop><stop stop-color="rgb(255,255,255)" offset="100%" stop-opacity="1"></stop></radialGradient><mask id="mk_vn3hJgzNsY"><path fill="url(#op_Nt2SYBCzWX)" d="M0 0 M21.464,89.372 C12.569999999999999,83.858 4.849,76.588 -1.271,67.996 C-10.741,54.699999999999996 -16.403,38.347 -16.403,20.59 C-16.403,-5.539999999999999 -4.234999999999999,-28.686 14.521,-43.35 C18.78,-46.68 24.234,-50.04 28.253,-51.941 C31.373,-53.419000000000004 36.71,-56.079 43.798,-55.979 C55.550000000000004,-55.812 64.429,-49.821 69.483,-43.016 C73.366,-37.788 75.762,-31.347 75.842,-24.355 C75.844,-24.565 100.306,-103.959 -4.208,-103.959 C-48.101,-103.959 -84.247,-62.289 -84.247,-25.743 C-84.247,-2.5619999999999976 -78.86800000000001,15.945000000000002 -72.132,30.289 C-57.132000000000005,62.238 -29.314,86.967 4.713,97.861 C17.037,101.808 30.164,103.958 43.798,103.958 C57.939,103.958 71.529,101.632 84.247,97.4 C77.057,99.656 69.435,100.891 61.527,100.891 C46.857,100.891 33.182,96.636 21.464,89.372z"></path></mask><radialGradient id="gr_wAlJHM2ZT8" spreadMethod="pad" gradientUnits="userSpaceOnUse" cx="-46.498" cy="-109.898" r="279.9283481982487" fx="-44.87729560000001" fy="31.6468888"><stop offset="0%" stop-color="rgb(53,193,241)"></stop><stop offset="6%" stop-color="rgb(53,193,239)"></stop><stop offset="11%" stop-color="rgb(52,193,237)"></stop><stop offset="16%" stop-color="rgb(49,194,230)"></stop><stop offset="21%" stop-color="rgb(47,194,223)"></stop><stop offset="26%" stop-color="rgb(45,195,216)"></stop><stop offset="32%" stop-color="rgb(43,195,210)"></stop><stop offset="49%" stop-color="rgb(48,197,146)"></stop><stop offset="67%" stop-color="rgb(54,199,82)"></stop></radialGradient><radialGradient id="gr_jZ5HN9dwoL" spreadMethod="pad" gradientUnits="userSpaceOnUse" cx="113.062" cy="-6.152" r="97.3162545929507" fx="127.4155886" fy="46.51671739999999"><stop offset="0%" stop-color="rgb(102,235,110)"></stop><stop offset="50%" stop-color="rgb(102,235,110)"></stop><stop offset="100%" stop-color="rgb(102,235,110)"></stop></radialGradient><radialGradient id="op_OKYjsd87ZA" spreadMethod="pad" gradientUnits="userSpaceOnUse" cx="113.062" cy="-6.152" r="97.3162545929507" fx="127.4155886" fy="46.51671739999999"><stop stop-color="rgb(255,255,255)" offset="0%" stop-opacity="1"></stop><stop stop-color="rgb(255,255,255)" offset="50%" stop-opacity="0.5"></stop><stop stop-color="rgb(255,255,255)" offset="100%" stop-opacity="0"></stop></radialGradient><mask id="mk_6AEAIihrD1"><path fill="url(#op_OKYjsd87ZA)" d="M0 0 M-0.025,-85.891 C-70.13900000000001,-85.891 -127.056,-29.545 -127.997,40.309 C-127.521,3.766999999999996 -91.203,-25.743 -48.032,-25.743 C-44.531,-25.743 -24.57,-25.401 -6.026,-15.669 C10.308,-7.096 18.872,3.2620000000000005 24.824,13.538 C31.004,24.207 32.104,37.685 32.104,43.058 C32.104,48.43 29.395,56.385 24.311,62.967 C23.501,64.015 21.007,65.464 21.007,68.63 C21.007,71.235 22.708000000000002,73.74799999999999 25.73,75.856 C40.111000000000004,85.892 67.216,84.54 67.288,84.54 C78.478,84.501 88.544,81.424 97.56,76.152 C101.663,73.753 105.46000000000001,70.905 108.882,67.652 C120.63000000000001,56.489000000000004 127.792,40.757999999999996 127.991,23.279 C127.994,23.024 127.996,22.767 127.997,22.514 C127.997,22.514 127.997,22.018 127.997,22.018 C127.938,0.30400000000000205 119.96799999999999,-14.163 116.654,-20.637 C95.46199999999999,-62.055 49.715,-85.891 -0.025,-85.891z"></path></mask></defs><g clip-path="url(#animationMask_gqH0fmvMv8)"><g clip-path="url(#cp_CowJd8IL)" transform="matrix(0.42,0,0,0.42,-62,-64)" opacity="1"><g transform="matrix(1,0,0,1,172,172)" opacity="1" style="user-select: none;"><g opacity="1" transform="matrix(1,0,0,1,128,128)"><path fill="url(#gr_yCAsyAwV6J)" fill-opacity="1" d="M0 0 M-69.297,44.631 C-69.297,118.504 -1.206999999999999,126.001 13.464,126.001 C21.37,126.001 33.304,123.698 40.494,121.443 C40.933,121.297 41.369,121.149 41.806,120.999 C69.564,111.42599999999999 92.993,92.59200000000001 108.393,68.18 C110.603,64.67800000000001 106.71900000000001,60.611 103.051,62.534 C99.686,64.298 96.17,65.876 92.518,67.248 C81.536,71.373 69.41,73.712 56.617,73.712 C9.296999999999997,73.712 -31.926,41.159000000000006 -31.926,-0.611 C-31.926,-12.357000000000001 -25.13,-22.537 -15.501,-27.9 C-58.294999999999995,-26.104999999999997 -69.297,18.501 -69.297,44.631z"></path></g><g opacity="0.63" transform="matrix(1,0,0,1,147.871,177.051)"><g opacity="1" transform="matrix(1,0,0,1,0,0)"><path fill="url(#gr_7bRCNf4vys)" mask="url(#mk_BcCLHZGAg4)" fill-opacity="1" d="M0 0 M83.18,13.483 C79.81500000000001,15.247 76.299,16.825 72.647,18.197 C61.665000000000006,22.322 49.538000000000004,24.661 36.746,24.661 C-10.573999999999998,24.661 -51.797,-7.891999999999996 -51.797,-49.662 C-51.797,-61.407 -45.001000000000005,-71.58800000000001 -35.371,-76.95 C-78.166,-75.156 -89.168,-30.549999999999997 -89.168,-4.42 C-89.168,69.453 -21.079,76.95 -6.407,76.95 C1.4989999999999997,76.95 13.434000000000001,74.647 20.623,72.391 C21.062,72.24600000000001 21.497999999999998,72.098 21.935,71.948 C49.693,62.37499999999999 73.122,43.541 88.523,19.129 C90.732,15.627000000000002 86.84800000000001,11.559000000000001 83.18,13.483z"></path></g></g><g opacity="1" transform="matrix(1,0,0,1,92.276,152.042)"><g opacity="1" transform="matrix(1,0,0,1,0,0)"><path fill="url(#gr_ITolcXLHD8)" fill-opacity="1" d="M0 0 M-92.277,-25.743 C-92.277,-2.561 -86.897,15.945000000000002 -80.161,30.289 C-65.161,62.239000000000004 -37.344,86.967 -3.316,97.861 C9.007000000000001,101.808 22.135000000000005,103.958 35.77,103.958 C49.910000000000004,103.958 63.5,101.631 76.218,97.401 C69.027,99.65599999999999 61.405,100.891 53.499,100.891 C38.828,100.891 25.152,96.636 13.434,89.372 C4.539999999999999,83.858 -3.181,76.588 -9.301,67.996 C-18.771,54.699999999999996 -24.432,38.346000000000004 -24.432,20.59 C-24.432,-5.539999999999999 -12.264,-28.686 6.492,-43.35 C10.751000000000001,-46.68 16.206,-50.038000000000004 20.223,-51.941 C23.343999999999998,-53.418 28.681000000000004,-56.079 35.77,-55.978 C47.521,-55.812000000000005 56.399,-49.821000000000005 61.455,-43.017 C65.337,-37.788000000000004 67.733,-31.347 67.813,-24.355 C67.815,-24.566 92.276,-103.959 -12.238,-103.959 C-56.13,-103.959 -92.277,-62.289 -92.277,-25.743z"></path></g></g><g opacity="1" transform="matrix(1,0,0,1,84.247,152.042)"><g opacity="1" transform="matrix(1,0,0,1,0,0)"><path fill="url(#gr_k8LZxxsbgh)" mask="url(#mk_vn3hJgzNsY)" fill-opacity="1" d="M0 0 M21.464,89.372 C12.569999999999999,83.858 4.849,76.588 -1.271,67.996 C-10.741,54.699999999999996 -16.403,38.347 -16.403,20.59 C-16.403,-5.539999999999999 -4.234999999999999,-28.686 14.521,-43.35 C18.78,-46.68 24.234,-50.04 28.253,-51.941 C31.373,-53.419000000000004 36.71,-56.079 43.798,-55.979 C55.550000000000004,-55.812 64.429,-49.821 69.483,-43.016 C73.366,-37.788 75.762,-31.347 75.842,-24.355 C75.844,-24.565 100.306,-103.959 -4.208,-103.959 C-48.101,-103.959 -84.247,-62.289 -84.247,-25.743 C-84.247,-2.5619999999999976 -78.86800000000001,15.945000000000002 -72.132,30.289 C-57.132000000000005,62.238 -29.314,86.967 4.713,97.861 C17.037,101.808 30.164,103.958 43.798,103.958 C57.939,103.958 71.529,101.632 84.247,97.4 C77.057,99.656 69.435,100.891 61.527,100.891 C46.857,100.891 33.182,96.636 21.464,89.372z"></path></g></g><g opacity="1" transform="matrix(1,0,0,1,128.003,85.891)"><g opacity="1" transform="matrix(1,0,0,1,0,0)"><path fill="url(#gr_wAlJHM2ZT8)" fill-opacity="1" d="M0 0 M-0.025,-85.891 C-70.13900000000001,-85.891 -127.056,-29.545 -127.997,40.309 C-127.521,3.766999999999996 -91.203,-25.743 -48.032,-25.743 C-44.531,-25.743 -24.57,-25.401 -6.026,-15.669 C10.308,-7.096 18.872,3.2620000000000005 24.824,13.538 C31.004,24.207 32.104,37.685 32.104,43.058 C32.104,48.43 29.395,56.385 24.311,62.967 C23.501,64.015 21.007,65.464 21.007,68.63 C21.007,71.235 22.708000000000002,73.74799999999999 25.73,75.856 C40.111000000000004,85.892 67.216,84.54 67.288,84.54 C78.478,84.501 88.544,81.424 97.56,76.152 C101.663,73.753 105.46000000000001,70.905 108.882,67.652 C120.63000000000001,56.489000000000004 127.792,40.757999999999996 127.991,23.279 C127.994,23.024 127.996,22.767 127.997,22.514 C127.997,22.514 127.997,22.018 127.997,22.018 C127.938,0.30400000000000205 119.96799999999999,-14.163 116.654,-20.637 C95.46199999999999,-62.055 49.715,-85.891 -0.025,-85.891z"></path></g></g><g opacity="1" transform="matrix(1,0,0,1,128.003,85.891)"><g opacity="1" transform="matrix(1,0,0,1,0,0)"><path fill="url(#gr_jZ5HN9dwoL)" mask="url(#mk_6AEAIihrD1)" fill-opacity="1" d="M0 0 M-0.025,-85.891 C-70.13900000000001,-85.891 -127.056,-29.545 -127.997,40.309 C-127.521,3.766999999999996 -91.203,-25.743 -48.032,-25.743 C-44.531,-25.743 -24.57,-25.401 -6.026,-15.669 C10.308,-7.096 18.872,3.2620000000000005 24.824,13.538 C31.004,24.207 32.104,37.685 32.104,43.058 C32.104,48.43 29.395,56.385 24.311,62.967 C23.501,64.015 21.007,65.464 21.007,68.63 C21.007,71.235 22.708000000000002,73.74799999999999 25.73,75.856 C40.111000000000004,85.892 67.216,84.54 67.288,84.54 C78.478,84.501 88.544,81.424 97.56,76.152 C101.663,73.753 105.46000000000001,70.905 108.882,67.652 C120.63000000000001,56.489000000000004 127.792,40.757999999999996 127.991,23.279 C127.994,23.024 127.996,22.767 127.997,22.514 C127.997,22.514 127.997,22.018 127.997,22.018 C127.938,0.30400000000000205 119.96799999999999,-14.163 116.654,-20.637 C95.46199999999999,-62.055 49.715,-85.891 -0.025,-85.891z"></path></g></g></g><g mask="url(#ly_jMC8Lxbsk5)"><g transform="matrix(1,0,0,1,300,300)" opacity="0" style="user-select: none; display: block;"><g opacity="1" transform="matrix(1,0,0,1,10.488,14.814)"><path fill="rgb(0,255,253)" fill-opacity="1" d="M0 0 M193.4885,-164.8145 C193.4885,-164.8145 193.4885,164.8145 193.4885,164.8145 C193.4885,164.8145 -193.4885,164.8145 -193.4885,164.8145 C-193.4885,164.8145 -193.4885,-164.8145 -193.4885,-164.8145 C-193.4885,-164.8145 193.4885,-164.8145 193.4885,-164.8145z" style="display: block;"></path><path stroke-linecap="butt" stroke-linejoin="miter" fill-opacity="0" stroke-miterlimit="4" stroke="rgb(121,154,165)" stroke-opacity="1" stroke-width="0" d="M0 0 M193.4885,-164.8145 C193.4885,-164.8145 193.4885,164.8145 193.4885,164.8145 C193.4885,164.8145 -193.4885,164.8145 -193.4885,164.8145 C-193.4885,164.8145 -193.4885,-164.8145 -193.4885,-164.8145 C-193.4885,-164.8145 193.4885,-164.8145 193.4885,-164.8145z" style="display: block;"></path></g></g></g></g></g></svg>